# xmcd
#
# Track frame offsets:
#	150
#	18878
#	37564
#	57349
#	73497
#	89336
#	110351
#	132891
#	147500
#	170233
#	189355
#	207050
#	221670
#	243829
#
# Disc length: 3408 seconds
#
# Revision: 0
# Processed by: cddbd v1.5.1PL2 Copyright (c) Steve Scherf et al.
# Submitted via: dBpowerAMP V4.0
#
DISCID=c70d4e0e
DTITLE=Preston Smith - The Night Blooming Jazz Man
DYEAR=1900
DGENRE=Blues
TTITLE0=Fly Me To The Moon
TTITLE1=Sraighten Up and Fly Right
TTITLE2=Sentimental Reasons
TTITLE3=All Of Me
TTITLE4=I Can't Give You Anything But Love
TTITLE5=Sunny Side Of The Street
TTITLE6=The Greatest Thing
TTITLE7=I've Got My Fingers Cross
TTITLE8=Are You Experienced
TTITLE9=Sentimental Reasons (alt.)
TTITLE10=All Of Me (alt.)
TTITLE11=Sunny Side Of The Street (alt.)
TTITLE12=Don't Lie To Me
TTITLE13=Ain't That Lovin' Ya
EXTD=Title: The Night Blooming Jazz Man
EXTT0=
EXTT1=
EXTT2=
EXTT3=
EXTT4=
EXTT5=
EXTT6=
EXTT7=
EXTT8=
EXTT9=
EXTT10=
EXTT11=
EXTT12=
EXTT13=
PLAYORDER=
